<svg xmlns="http://www.w3.org/2000/svg" xmlns:xlink="http://www.w3.org/1999/xlink" width="500" zoomAndPan="magnify" viewBox="0 0 375 374.999991" height="500" preserveAspectRatio="xMidYMid meet" version="1.0"><defs><clipPath id="e3126554fa"><path d="M 220 229 L 263.730469 229 L 263.730469 237.679688 L 220 237.679688 Z M 220 229 " clip-rule="nonzero"/></clipPath><clipPath id="d81c9e1226"><path d="M 120 229 L 204 229 L 204 237.679688 L 120 237.679688 Z M 120 229 " clip-rule="nonzero"/></clipPath><clipPath id="488c287c86"><path d="M 67 229 L 92 229 L 92 237.679688 L 67 237.679688 Z M 67 229 " clip-rule="nonzero"/></clipPath><clipPath id="d23f2c2f34"><path d="M 23.730469 165 L 41 165 L 41 175 L 23.730469 175 Z M 23.730469 165 " clip-rule="nonzero"/></clipPath><clipPath id="3ac8ba09ba"><path d="M 132 137.179688 L 247 137.179688 L 247 147 L 132 147 Z M 132 137.179688 " clip-rule="nonzero"/></clipPath><clipPath id="ddb720fb5e"><path d="M 158 124.640625 L 351.644531 124.640625 L 351.644531 250.640625 L 158 250.640625 Z M 158 124.640625 " clip-rule="nonzero"/></clipPath><clipPath id="89e7ba3984"><path d="M 253.222656 151.875 L 324.46875 151.875 L 324.46875 223.125 L 253.222656 223.125 Z M 253.222656 151.875 " clip-rule="nonzero"/></clipPath><clipPath id="af59c9e1ed"><path d="M 288.84375 151.875 C 269.171875 151.875 253.222656 167.824219 253.222656 187.5 C 253.222656 207.175781 269.171875 223.125 288.84375 223.125 C 308.519531 223.125 324.46875 207.175781 324.46875 187.5 C 324.46875 167.824219 308.519531 151.875 288.84375 151.875 Z M 288.84375 151.875 " clip-rule="nonzero"/></clipPath></defs><rect x="-37.5" width="450" fill="#ffffff" y="-37.499999" height="449.999989" fill-opacity="1"/><rect x="-37.5" width="450" fill="#ffffff" y="-37.499999" height="449.999989" fill-opacity="1"/><g clip-path="url(#e3126554fa)"><path fill="#000000" d="M 260.023438 237.4375 L 225.09375 237.4375 C 224.820312 237.4375 224.546875 237.410156 224.277344 237.355469 C 224.003906 237.300781 223.742188 237.222656 223.488281 237.117188 C 223.230469 237.011719 222.992188 236.882812 222.761719 236.730469 C 222.53125 236.574219 222.320312 236.402344 222.125 236.207031 C 221.929688 236.011719 221.753906 235.800781 221.601562 235.570312 C 221.449219 235.339844 221.320312 235.097656 221.214844 234.84375 C 221.109375 234.589844 221.027344 234.324219 220.972656 234.054688 C 220.921875 233.785156 220.894531 233.511719 220.894531 233.234375 C 220.894531 232.960938 220.921875 232.6875 220.972656 232.417969 C 221.027344 232.144531 221.109375 231.882812 221.214844 231.628906 C 221.320312 231.371094 221.449219 231.132812 221.601562 230.902344 C 221.753906 230.671875 221.929688 230.460938 222.125 230.265625 C 222.320312 230.070312 222.53125 229.894531 222.761719 229.742188 C 222.992188 229.589844 223.230469 229.460938 223.488281 229.355469 C 223.742188 229.25 224.003906 229.167969 224.277344 229.113281 C 224.546875 229.0625 224.820312 229.035156 225.09375 229.035156 L 260.023438 229.035156 C 260.300781 229.035156 260.574219 229.0625 260.84375 229.113281 C 261.113281 229.167969 261.375 229.25 261.632812 229.355469 C 261.886719 229.460938 262.128906 229.589844 262.359375 229.742188 C 262.585938 229.894531 262.800781 230.070312 262.996094 230.265625 C 263.191406 230.460938 263.363281 230.671875 263.515625 230.902344 C 263.671875 231.132812 263.800781 231.371094 263.90625 231.628906 C 264.011719 231.882812 264.089844 232.144531 264.144531 232.417969 C 264.199219 232.6875 264.226562 232.960938 264.226562 233.234375 C 264.226562 233.511719 264.199219 233.785156 264.144531 234.054688 C 264.089844 234.324219 264.011719 234.589844 263.90625 234.84375 C 263.800781 235.097656 263.671875 235.339844 263.515625 235.570312 C 263.363281 235.800781 263.191406 236.011719 262.996094 236.207031 C 262.800781 236.402344 262.585938 236.574219 262.359375 236.730469 C 262.128906 236.882812 261.886719 237.011719 261.632812 237.117188 C 261.375 237.222656 261.113281 237.300781 260.84375 237.355469 C 260.574219 237.410156 260.300781 237.4375 260.023438 237.4375 Z M 260.023438 237.4375 " fill-opacity="1" fill-rule="nonzero"/></g><g clip-path="url(#d81c9e1226)"><path fill="#000000" d="M 198.90625 237.4375 L 124.566406 237.4375 C 124.289062 237.4375 124.015625 237.410156 123.746094 237.355469 C 123.476562 237.300781 123.214844 237.222656 122.957031 237.117188 C 122.703125 237.011719 122.460938 236.882812 122.230469 236.730469 C 122.003906 236.574219 121.789062 236.402344 121.59375 236.207031 C 121.398438 236.011719 121.226562 235.800781 121.074219 235.570312 C 120.917969 235.339844 120.789062 235.097656 120.683594 234.84375 C 120.578125 234.589844 120.5 234.324219 120.445312 234.054688 C 120.390625 233.785156 120.363281 233.511719 120.363281 233.234375 C 120.363281 232.960938 120.390625 232.6875 120.445312 232.417969 C 120.5 232.144531 120.578125 231.882812 120.683594 231.628906 C 120.789062 231.371094 120.917969 231.132812 121.074219 230.902344 C 121.226562 230.671875 121.398438 230.460938 121.59375 230.265625 C 121.789062 230.070312 122.003906 229.894531 122.230469 229.742188 C 122.460938 229.589844 122.703125 229.460938 122.957031 229.355469 C 123.214844 229.25 123.476562 229.167969 123.746094 229.113281 C 124.015625 229.0625 124.289062 229.035156 124.566406 229.035156 L 198.90625 229.035156 C 199.179688 229.035156 199.453125 229.0625 199.726562 229.113281 C 199.996094 229.167969 200.257812 229.25 200.511719 229.355469 C 200.769531 229.460938 201.011719 229.589844 201.238281 229.742188 C 201.46875 229.894531 201.679688 230.070312 201.875 230.265625 C 202.070312 230.460938 202.246094 230.671875 202.398438 230.902344 C 202.550781 231.132812 202.683594 231.371094 202.789062 231.628906 C 202.894531 231.882812 202.972656 232.144531 203.027344 232.417969 C 203.082031 232.6875 203.105469 232.960938 203.105469 233.234375 C 203.105469 233.511719 203.082031 233.785156 203.027344 234.054688 C 202.972656 234.324219 202.894531 234.589844 202.789062 234.84375 C 202.683594 235.097656 202.550781 235.339844 202.398438 235.570312 C 202.246094 235.800781 202.070312 236.011719 201.875 236.207031 C 201.679688 236.402344 201.46875 236.574219 201.238281 236.730469 C 201.011719 236.882812 200.769531 237.011719 200.511719 237.117188 C 200.257812 237.222656 199.996094 237.300781 199.726562 237.355469 C 199.453125 237.410156 199.179688 237.4375 198.90625 237.4375 Z M 198.90625 237.4375 " fill-opacity="1" fill-rule="nonzero"/></g><g clip-path="url(#488c287c86)"><path fill="#000000" d="M 87.507812 237.4375 L 71.65625 237.4375 C 71.378906 237.4375 71.105469 237.410156 70.835938 237.355469 C 70.566406 237.300781 70.300781 237.222656 70.046875 237.117188 C 69.792969 237.011719 69.550781 236.882812 69.320312 236.730469 C 69.089844 236.574219 68.878906 236.402344 68.683594 236.207031 C 68.488281 236.011719 68.316406 235.800781 68.160156 235.570312 C 68.007812 235.339844 67.878906 235.097656 67.773438 234.84375 C 67.667969 234.589844 67.589844 234.324219 67.535156 234.054688 C 67.480469 233.785156 67.453125 233.511719 67.453125 233.234375 C 67.453125 232.960938 67.480469 232.6875 67.535156 232.417969 C 67.589844 232.144531 67.667969 231.882812 67.773438 231.628906 C 67.878906 231.371094 68.007812 231.132812 68.160156 230.902344 C 68.316406 230.671875 68.488281 230.460938 68.683594 230.265625 C 68.878906 230.070312 69.089844 229.894531 69.320312 229.742188 C 69.550781 229.589844 69.792969 229.460938 70.046875 229.355469 C 70.300781 229.25 70.566406 229.167969 70.835938 229.113281 C 71.105469 229.0625 71.378906 229.035156 71.65625 229.035156 L 87.507812 229.035156 C 87.785156 229.035156 88.058594 229.0625 88.328125 229.113281 C 88.597656 229.167969 88.863281 229.25 89.117188 229.355469 C 89.371094 229.460938 89.613281 229.589844 89.84375 229.742188 C 90.074219 229.894531 90.285156 230.070312 90.480469 230.265625 C 90.675781 230.460938 90.847656 230.671875 91.003906 230.902344 C 91.15625 231.132812 91.285156 231.371094 91.390625 231.628906 C 91.496094 231.882812 91.574219 232.144531 91.628906 232.417969 C 91.683594 232.6875 91.710938 232.960938 91.710938 233.234375 C 91.710938 233.511719 91.683594 233.785156 91.628906 234.054688 C 91.574219 234.324219 91.496094 234.589844 91.390625 234.84375 C 91.285156 235.097656 91.15625 235.339844 91.003906 235.570312 C 90.847656 235.800781 90.675781 236.011719 90.480469 236.207031 C 90.285156 236.402344 90.074219 236.574219 89.84375 236.730469 C 89.613281 236.882812 89.371094 237.011719 89.117188 237.117188 C 88.863281 237.222656 88.597656 237.300781 88.328125 237.355469 C 88.058594 237.410156 87.785156 237.4375 87.507812 237.4375 Z M 87.507812 237.4375 " fill-opacity="1" fill-rule="nonzero"/></g><path fill="#000000" d="M 230.109375 205.671875 L 87.507812 205.671875 C 87.234375 205.671875 86.960938 205.648438 86.6875 205.59375 C 86.417969 205.539062 86.15625 205.460938 85.902344 205.355469 C 85.644531 205.25 85.402344 205.117188 85.175781 204.964844 C 84.945312 204.8125 84.734375 204.636719 84.539062 204.441406 C 84.34375 204.246094 84.167969 204.035156 84.015625 203.804688 C 83.863281 203.578125 83.734375 203.335938 83.628906 203.078125 C 83.519531 202.824219 83.441406 202.5625 83.386719 202.292969 C 83.335938 202.019531 83.308594 201.746094 83.308594 201.472656 C 83.308594 201.195312 83.335938 200.921875 83.386719 200.652344 C 83.441406 200.382812 83.519531 200.117188 83.628906 199.863281 C 83.734375 199.609375 83.863281 199.367188 84.015625 199.136719 C 84.167969 198.910156 84.34375 198.695312 84.539062 198.5 C 84.734375 198.304688 84.945312 198.132812 85.175781 197.980469 C 85.402344 197.824219 85.644531 197.695312 85.902344 197.589844 C 86.15625 197.484375 86.417969 197.40625 86.6875 197.351562 C 86.960938 197.296875 87.234375 197.269531 87.507812 197.269531 L 230.109375 197.269531 C 230.386719 197.269531 230.65625 197.296875 230.929688 197.351562 C 231.199219 197.40625 231.460938 197.484375 231.71875 197.589844 C 231.972656 197.695312 232.214844 197.824219 232.441406 197.980469 C 232.671875 198.132812 232.886719 198.304688 233.078125 198.5 C 233.273438 198.695312 233.449219 198.910156 233.601562 199.136719 C 233.753906 199.367188 233.886719 199.609375 233.992188 199.863281 C 234.097656 200.117188 234.175781 200.382812 234.230469 200.652344 C 234.285156 200.921875 234.3125 201.195312 234.3125 201.472656 C 234.3125 201.746094 234.285156 202.019531 234.230469 202.292969 C 234.175781 202.5625 234.097656 202.824219 233.992188 203.078125 C 233.886719 203.335938 233.753906 203.578125 233.601562 203.804688 C 233.449219 204.035156 233.273438 204.246094 233.078125 204.441406 C 232.886719 204.636719 232.671875 204.8125 232.441406 204.964844 C 232.214844 205.117188 231.972656 205.25 231.71875 205.355469 C 231.460938 205.460938 231.199219 205.539062 230.929688 205.59375 C 230.65625 205.648438 230.386719 205.671875 230.109375 205.671875 Z M 230.109375 205.671875 " fill-opacity="1" fill-rule="nonzero"/><path fill="#000000" d="M 170.53125 174.050781 L 64.679688 174.050781 C 64.40625 174.050781 64.132812 174.023438 63.859375 173.96875 C 63.589844 173.914062 63.328125 173.835938 63.074219 173.730469 C 62.816406 173.625 62.574219 173.496094 62.347656 173.34375 C 62.117188 173.1875 61.90625 173.015625 61.710938 172.820312 C 61.515625 172.625 61.339844 172.414062 61.1875 172.183594 C 61.035156 171.953125 60.902344 171.710938 60.796875 171.457031 C 60.691406 171.203125 60.613281 170.9375 60.558594 170.667969 C 60.503906 170.398438 60.480469 170.125 60.480469 169.847656 C 60.480469 169.574219 60.503906 169.300781 60.558594 169.027344 C 60.613281 168.757812 60.691406 168.496094 60.796875 168.242188 C 60.902344 167.984375 61.035156 167.742188 61.1875 167.515625 C 61.339844 167.285156 61.515625 167.074219 61.710938 166.878906 C 61.90625 166.683594 62.117188 166.507812 62.347656 166.355469 C 62.574219 166.203125 62.816406 166.074219 63.074219 165.964844 C 63.328125 165.859375 63.589844 165.78125 63.859375 165.726562 C 64.132812 165.675781 64.40625 165.648438 64.679688 165.648438 L 170.53125 165.648438 C 170.808594 165.648438 171.082031 165.675781 171.351562 165.726562 C 171.621094 165.78125 171.882812 165.859375 172.140625 165.964844 C 172.394531 166.074219 172.636719 166.203125 172.867188 166.355469 C 173.09375 166.507812 173.308594 166.683594 173.503906 166.878906 C 173.695312 167.074219 173.871094 167.285156 174.023438 167.515625 C 174.179688 167.742188 174.308594 167.984375 174.414062 168.242188 C 174.519531 168.496094 174.597656 168.757812 174.652344 169.027344 C 174.707031 169.300781 174.734375 169.574219 174.734375 169.847656 C 174.734375 170.125 174.707031 170.398438 174.652344 170.667969 C 174.597656 170.9375 174.519531 171.203125 174.414062 171.457031 C 174.308594 171.710938 174.179688 171.953125 174.023438 172.183594 C 173.871094 172.414062 173.695312 172.625 173.503906 172.820312 C 173.308594 173.015625 173.09375 173.1875 172.867188 173.34375 C 172.636719 173.496094 172.394531 173.625 172.140625 173.730469 C 171.882812 173.835938 171.621094 173.914062 171.351562 173.96875 C 171.082031 174.023438 170.808594 174.050781 170.53125 174.050781 Z M 170.53125 174.050781 " fill-opacity="1" fill-rule="nonzero"/><g clip-path="url(#d23f2c2f34)"><path fill="#000000" d="M 35.96875 174.050781 L 27.929688 174.050781 C 27.65625 174.050781 27.382812 174.023438 27.109375 173.96875 C 26.839844 173.914062 26.578125 173.835938 26.324219 173.730469 C 26.066406 173.625 25.824219 173.496094 25.597656 173.34375 C 25.367188 173.1875 25.15625 173.015625 24.960938 172.820312 C 24.765625 172.625 24.589844 172.414062 24.4375 172.183594 C 24.285156 171.953125 24.15625 171.710938 24.050781 171.457031 C 23.945312 171.203125 23.863281 170.9375 23.808594 170.667969 C 23.757812 170.398438 23.730469 170.125 23.730469 169.847656 C 23.730469 169.574219 23.757812 169.300781 23.808594 169.027344 C 23.863281 168.757812 23.945312 168.496094 24.050781 168.242188 C 24.15625 167.984375 24.285156 167.742188 24.4375 167.515625 C 24.589844 167.285156 24.765625 167.074219 24.960938 166.878906 C 25.15625 166.683594 25.367188 166.507812 25.597656 166.355469 C 25.824219 166.203125 26.066406 166.074219 26.324219 165.964844 C 26.578125 165.859375 26.839844 165.78125 27.109375 165.726562 C 27.382812 165.675781 27.65625 165.648438 27.929688 165.648438 L 35.96875 165.648438 C 36.246094 165.648438 36.519531 165.675781 36.789062 165.726562 C 37.058594 165.78125 37.324219 165.859375 37.578125 165.964844 C 37.832031 166.074219 38.074219 166.203125 38.304688 166.355469 C 38.535156 166.507812 38.746094 166.683594 38.941406 166.878906 C 39.136719 167.074219 39.308594 167.285156 39.464844 167.515625 C 39.617188 167.742188 39.746094 167.984375 39.851562 168.242188 C 39.957031 168.496094 40.035156 168.757812 40.089844 169.027344 C 40.144531 169.300781 40.171875 169.574219 40.171875 169.847656 C 40.171875 170.125 40.144531 170.398438 40.089844 170.667969 C 40.035156 170.9375 39.957031 171.203125 39.851562 171.457031 C 39.746094 171.710938 39.617188 171.953125 39.464844 172.183594 C 39.308594 172.414062 39.136719 172.625 38.941406 172.820312 C 38.746094 173.015625 38.535156 173.1875 38.304688 173.34375 C 38.074219 173.496094 37.832031 173.625 37.578125 173.730469 C 37.324219 173.835938 37.058594 173.914062 36.789062 173.96875 C 36.519531 174.023438 36.246094 174.050781 35.96875 174.050781 Z M 35.96875 174.050781 " fill-opacity="1" fill-rule="nonzero"/></g><path fill="#000000" d="M 223.609375 174.050781 L 205.320312 174.050781 C 205.042969 174.050781 204.769531 174.023438 204.5 173.96875 C 204.230469 173.914062 203.96875 173.835938 203.710938 173.730469 C 203.457031 173.625 203.214844 173.496094 202.984375 173.34375 C 202.757812 173.1875 202.542969 173.015625 202.347656 172.820312 C 202.152344 172.625 201.980469 172.414062 201.828125 172.183594 C 201.671875 171.953125 201.542969 171.710938 201.4375 171.457031 C 201.332031 171.203125 201.253906 170.9375 201.199219 170.667969 C 201.144531 170.398438 201.117188 170.125 201.117188 169.847656 C 201.117188 169.574219 201.144531 169.300781 201.199219 169.027344 C 201.253906 168.757812 201.332031 168.496094 201.4375 168.242188 C 201.542969 167.984375 201.671875 167.742188 201.828125 167.515625 C 201.980469 167.285156 202.152344 167.074219 202.347656 166.878906 C 202.542969 166.683594 202.757812 166.507812 202.984375 166.355469 C 203.214844 166.203125 203.457031 166.074219 203.710938 165.964844 C 203.96875 165.859375 204.230469 165.78125 204.5 165.726562 C 204.769531 165.675781 205.042969 165.648438 205.320312 165.648438 L 223.609375 165.648438 C 223.886719 165.648438 224.160156 165.675781 224.429688 165.726562 C 224.699219 165.78125 224.964844 165.859375 225.21875 165.964844 C 225.472656 166.074219 225.714844 166.203125 225.945312 166.355469 C 226.175781 166.507812 226.386719 166.683594 226.582031 166.878906 C 226.777344 167.074219 226.949219 167.285156 227.105469 167.515625 C 227.257812 167.742188 227.386719 167.984375 227.492188 168.242188 C 227.597656 168.496094 227.675781 168.757812 227.730469 169.027344 C 227.785156 169.300781 227.8125 169.574219 227.8125 169.847656 C 227.8125 170.125 227.785156 170.398438 227.730469 170.667969 C 227.675781 170.9375 227.597656 171.203125 227.492188 171.457031 C 227.386719 171.710938 227.257812 171.953125 227.105469 172.183594 C 226.949219 172.414062 226.777344 172.625 226.582031 172.820312 C 226.386719 173.015625 226.175781 173.1875 225.945312 173.34375 C 225.714844 173.496094 225.472656 173.625 225.21875 173.730469 C 224.964844 173.835938 224.699219 173.914062 224.429688 173.96875 C 224.160156 174.023438 223.886719 174.050781 223.609375 174.050781 Z M 223.609375 174.050781 " fill-opacity="1" fill-rule="nonzero"/><g clip-path="url(#3ac8ba09ba)"><path fill="#000000" d="M 242.574219 146.039062 L 136.5 146.039062 C 136.222656 146.039062 135.949219 146.011719 135.679688 145.960938 C 135.410156 145.90625 135.144531 145.824219 134.890625 145.71875 C 134.636719 145.613281 134.394531 145.484375 134.164062 145.332031 C 133.933594 145.179688 133.722656 145.003906 133.527344 144.808594 C 133.332031 144.613281 133.160156 144.402344 133.003906 144.171875 C 132.851562 143.941406 132.722656 143.699219 132.617188 143.445312 C 132.511719 143.191406 132.433594 142.929688 132.378906 142.65625 C 132.324219 142.386719 132.296875 142.113281 132.296875 141.839844 C 132.296875 141.5625 132.324219 141.289062 132.378906 141.019531 C 132.433594 140.746094 132.511719 140.484375 132.617188 140.230469 C 132.722656 139.976562 132.851562 139.734375 133.003906 139.503906 C 133.160156 139.273438 133.332031 139.0625 133.527344 138.867188 C 133.722656 138.671875 133.933594 138.5 134.164062 138.34375 C 134.394531 138.191406 134.636719 138.0625 134.890625 137.957031 C 135.144531 137.851562 135.410156 137.769531 135.679688 137.71875 C 135.949219 137.664062 136.222656 137.636719 136.5 137.636719 L 242.574219 137.636719 C 242.847656 137.636719 243.121094 137.664062 243.394531 137.71875 C 243.664062 137.769531 243.925781 137.851562 244.179688 137.957031 C 244.4375 138.0625 244.679688 138.191406 244.90625 138.34375 C 245.136719 138.5 245.347656 138.671875 245.542969 138.867188 C 245.738281 139.0625 245.914062 139.273438 246.066406 139.503906 C 246.21875 139.734375 246.351562 139.976562 246.457031 140.230469 C 246.5625 140.484375 246.640625 140.746094 246.695312 141.019531 C 246.75 141.289062 246.773438 141.5625 246.773438 141.839844 C 246.773438 142.113281 246.75 142.386719 246.695312 142.65625 C 246.640625 142.929688 246.5625 143.191406 246.457031 143.445312 C 246.351562 143.699219 246.21875 143.941406 246.066406 144.171875 C 245.914062 144.402344 245.738281 144.613281 245.542969 144.808594 C 245.347656 145.003906 245.136719 145.179688 244.90625 145.332031 C 244.679688 145.484375 244.4375 145.613281 244.179688 145.71875 C 243.925781 145.824219 243.664062 145.90625 243.394531 145.960938 C 243.121094 146.011719 242.847656 146.039062 242.574219 146.039062 Z M 242.574219 146.039062 " fill-opacity="1" fill-rule="nonzero"/></g><path fill="#000000" d="M 306.414062 185.316406 L 291.621094 218.597656 C 291.03125 219.925781 289.699219 220.777344 288.257812 220.777344 C 287.996094 220.777344 287.738281 220.734375 287.476562 220.703125 C 285.785156 220.328125 284.558594 218.8125 284.558594 217.078125 L 284.558594 194.894531 L 273.464844 194.894531 C 272.210938 194.894531 271.054688 194.273438 270.359375 193.191406 C 269.695312 192.164062 269.582031 190.820312 270.101562 189.679688 L 284.890625 156.402344 C 285.597656 154.8125 287.289062 153.917969 289.035156 154.292969 C 290.726562 154.667969 291.953125 156.183594 291.953125 157.917969 L 291.953125 180.101562 L 303.046875 180.101562 C 304.304688 180.101562 305.460938 180.722656 306.152344 181.808594 C 306.816406 182.832031 306.933594 184.175781 306.414062 185.316406 " fill-opacity="1" fill-rule="nonzero"/><g clip-path="url(#ddb720fb5e)"><path fill="#000000" d="M 288.257812 235.566406 C 261.753906 235.566406 240.1875 214.003906 240.1875 187.5 C 240.1875 160.996094 261.753906 139.429688 288.257812 139.429688 C 314.761719 139.429688 336.324219 160.996094 336.324219 187.5 C 336.324219 214.003906 314.761719 235.566406 288.257812 235.566406 Z M 288.257812 124.640625 L 188.421875 124.640625 C 186.457031 124.640625 184.609375 125.417969 183.207031 126.820312 C 181.804688 128.222656 181.027344 130.070312 181.027344 132.035156 C 181.027344 136.109375 184.363281 139.429688 188.421875 139.429688 C 190.457031 139.429688 192.117188 141.089844 192.117188 143.128906 C 192.117188 145.164062 190.457031 146.824219 188.421875 146.824219 L 166.234375 146.824219 C 164.269531 146.824219 162.421875 147.605469 161.019531 149.007812 C 159.621094 150.40625 158.839844 152.253906 158.839844 154.21875 C 158.839844 158.292969 162.164062 161.617188 166.234375 161.617188 L 225.253906 161.617188 C 226.105469 161.542969 227.027344 161.761719 227.765625 162.324219 C 229.050781 163.277344 229.613281 164.980469 229.050781 166.496094 C 227.839844 170.007812 226.886719 173.703125 226.277344 177.476562 C 225.960938 179.367188 224.285156 180.722656 222.320312 180.582031 C 221.773438 180.507812 221.25 180.363281 220.820312 180.101562 L 195.816406 180.101562 C 193.851562 180.101562 192.003906 180.882812 190.601562 182.285156 C 189.199219 183.683594 188.421875 185.535156 188.421875 187.5 C 188.421875 191.570312 191.757812 194.894531 195.816406 194.894531 L 221.742188 194.894531 C 221.917969 194.851562 222.148438 194.820312 222.363281 194.777344 C 224.285156 194.632812 225.988281 195.863281 226.320312 197.738281 C 226.914062 201.40625 227.839844 205.019531 229.050781 208.5 C 229.613281 210.015625 229.09375 211.722656 227.808594 212.71875 C 226.941406 213.339844 225.917969 213.570312 224.949219 213.382812 L 166.234375 213.382812 C 162.164062 213.382812 158.839844 216.703125 158.839844 220.777344 C 158.839844 222.742188 159.621094 224.589844 161.019531 225.992188 C 162.421875 227.390625 164.269531 228.171875 166.234375 228.171875 L 188.421875 228.171875 C 190.457031 228.171875 192.117188 229.832031 192.117188 231.871094 C 192.117188 233.90625 190.457031 235.566406 188.421875 235.566406 C 184.363281 235.566406 181.027344 238.890625 181.027344 242.960938 C 181.027344 244.925781 181.804688 246.777344 183.207031 248.175781 C 184.609375 249.578125 186.457031 250.359375 188.421875 250.359375 L 288.257812 250.359375 C 322.90625 250.359375 351.117188 222.148438 351.117188 187.5 C 351.117188 152.847656 322.90625 124.640625 288.257812 124.640625 " fill-opacity="1" fill-rule="nonzero"/></g><path fill="#000000" d="M 158.839844 194.894531 C 162.914062 194.894531 166.234375 191.570312 166.234375 187.5 C 166.234375 183.425781 162.914062 180.101562 158.839844 180.101562 L 151.445312 180.101562 C 147.371094 180.101562 144.050781 183.425781 144.050781 187.5 C 144.050781 191.570312 147.371094 194.894531 151.445312 194.894531 L 158.839844 194.894531 " fill-opacity="1" fill-rule="nonzero"/><g clip-path="url(#89e7ba3984)"><g clip-path="url(#af59c9e1ed)"><path fill="#e27951" d="M 253.222656 151.875 L 324.46875 151.875 L 324.46875 223.125 L 253.222656 223.125 Z M 253.222656 151.875 " fill-opacity="1" fill-rule="nonzero"/></g></g></svg>